<svg version="1.1" id="Layer_1" xmlns="http://www.w3.org/2000/svg" xmlns:xlink="http://www.w3.org/1999/xlink" x="0px" y="0px" viewBox="0 0 272 153.1" style="enable-background:new 0 0 272 153.1;" xml:space="preserve">
 <style type="text/css">
  .st0{fill:#FFFFFF;}
 </style>
 <g>
  <path class="st0" d="M71.3,91l81.8-50.7h42.4c1.3,0,2.5,1,2.5,2.5c0,1.2-0.5,1.7-1.2,2.1l-40.2,24c-2.6,1.5-3.5,4.7-3.5,7l0,15.1
		h51.1V3.1c0-1.7-1.3-3.1-3.3-3.1h-48.7L70.6,50.5V91L71.3,91L71.3,91z">
  </path>
  <path class="st0" d="M12.5,119.8L0,152.3h8.6l2.2-6.1h13.9l2.2,6.1h8.9l-12.7-32.4H12.5z M13.2,139.3l4.6-12.7l4.5,12.7H13.2z">
  </path>
  <path class="st0" d="M59.3,139.8c0,4.2-2.6,5.9-7,5.9c-4.3,0-7.1-1.8-7.1-5.9v-20.1h-8.3v21c0,9.4,8.4,12.3,15.4,12.3
		c7,0,15.3-2.9,15.3-12.3v-21h-8.3V139.8z">
  </path>
  <path class="st0" d="M71.3,126.8h10.5v25.4h8.3v-25.4h10.5v-7H71.3V126.8z">
  </path>
  <path class="st0" d="M157.7,119.8h-15.2v32.4h15.2c11.7,0,14.9-4.3,14.9-16.4C172.6,124.4,169.5,119.8,157.7,119.8z M157.4,145.2
		h-6.6v-18.4h6.6c5.2,0,6.8,1.4,6.8,9C164.1,142.7,162.4,145.2,157.4,145.2z">
  </path>
  <path class="st0" d="M272,119.8h-9.9L250.3,133v-13.2H242l0,32.4h8.3v-12.3l11.2,12.3H272l-15.1-16L272,119.8z">
  </path>
  <path class="st0" d="M177.3,152.3h26.2v-7h-17.9v-5.9H200v-7.1h-14.4v-5.5h17.9v-7h-26.2V152.3z">
  </path>
  <path class="st0" d="M120,118.9c-11.8,0-18,7.3-18,17c0,9.8,6.1,17.1,18,17.1c11.9,0,18-7.3,18-17.1
		C138,126.2,131.8,118.9,120,118.9z M120,145.8c-6.1,0-9.5-3.7-9.5-9.8c0-6,3.4-9.7,9.5-9.7c6.2,0,9.5,3.8,9.5,9.7
		C129.5,142,126.1,145.8,120,145.8z">
  </path>
  <path class="st0" d="M228.6,133.2l-7.6-0.8c-4.4-0.5-5.5-1.6-5.5-3.1c0-1.7,2.3-3.2,6.7-3.2c4.3,0,6.5,1.6,6.9,4h8.1
		c-0.4-6.8-6.2-11.1-14.6-11.1c-10,0-15.1,4-15.1,11c0,5.7,3.3,8.4,10.3,9.1l7.7,0.8c2.9,0.3,4.3,1.5,4.3,2.9c0,1.7-2,3.2-6.7,3.2
		c-5.5,0-7.6-1.4-8-4.1h-8c0.4,7.4,5.2,11.3,15.7,11.3c9.6,0,14.9-4.2,14.9-10.5C237.7,137.1,234.6,133.9,228.6,133.2z">
  </path>
 </g>
</svg>