<svg version="1.1" id="Layer_1" xmlns:x="ns_extend;" xmlns:i="ns_ai;" xmlns:graph="ns_graphs;" xmlns="http://www.w3.org/2000/svg" xmlns:xlink="http://www.w3.org/1999/xlink" x="0px" y="0px" viewBox="0 0 642.6 103" style="enable-background:new 0 0 642.6 103;" xml:space="preserve">
 <style type="text/css">
  .st0{fill:#D52B1E;}
 </style>
 <metadata>
  <sfw xmlns="ns_sfw;">
   <slices>
   </slices>
   <sliceSourceBounds bottomLeftOrigin="true" height="103" width="642.6" x="-121.1" y="-251.7">
   </sliceSourceBounds>
  </sfw>
 </metadata>
 <g>
  <path class="st0" d="M230.3,67.4h5v12.1h-8.7c-6.1,0-9.4-3.2-9.4-9.3l0-44.2l13.1-7.5L230.3,67.4z M294.7,43.2
		c0-15.7-6.7-23.3-20.6-23.3c-8.5,0-14.5,5.6-17.8,9.1v-7.9l-13,0l0,58.4h13.1V53c0-2.5,0.2-4.6,0.7-6.3c2-7.4,8.7-14.2,16.2-14.2
		c6.3,0,8.3,3,8.3,12.5v25.1c0,6.1,3.2,9.3,9.3,9.3h8.7V67.4h-5V43.2z M53.1,56c0,14.1-10,23.5-24.9,23.5H0V0.3h27.3
		c13.6,0,22.8,8.6,22.8,21.4c0,6.3-2.3,11.7-6.4,15.5C49.6,41.1,53.1,47.9,53.1,56z M13.3,32.1h14c5.7,0,9.4-3.9,9.4-9.8
		c0-5.9-3.5-9.5-9.5-9.5H13.3V32.1z M39.4,55.8c0-7-4.5-11.5-11.4-11.5H13.3v22.7l14.9,0C35.2,67.1,39.4,62.9,39.4,55.8z M224.1,16
		c4.4,0,8-3.6,8-8c0-4.4-3.6-8-8-8c-4.4,0-8,3.6-8,8C216.1,12.4,219.7,16,224.1,16z M112,53.8H72.3c1.3,9,7.9,14.8,17.1,14.8
		c7.7,0,13-5,13.6-5.5l2.6-2.7l6.8,10.5l-1.8,1.7c-0.3,0.3-8.5,8.3-21.5,8.3c-17.6,0-30.4-12.7-30.4-30.2
		c0-17.9,11.8-30.3,28.8-30.3c17.2,0,25,13.6,25,27c0,1.3-0.2,3.6-0.2,3.9L112,53.8z M98.8,42.2c-1.2-6.4-5.4-10.1-11.4-10.1
		c-6.7,0-11.9,3.7-14.2,10.1H98.8z M165.2,67.4h5v12.1h-8.5c-5.1,0-7.4-2.2-8.5-4.8c-3.2,3.1-8.1,6.1-15.3,6.1
		c-10.3,0-20.8-6.4-20.8-18.5c0-21,26.8-21.1,35.6-21.1c-0.4-6.2-4.2-8.9-10.6-8.9c-7.4,0-12.9,4.3-12.9,4.3l-2.6,2.2l-6.5-10.5
		l1.9-1.7c0.3-0.3,7.9-6.7,20.6-6.7c14.3,0,22.5,8.4,22.5,23.1V67.4z M152.8,52.7L152.8,52.7c-15.9,0-23,2.9-23,9.4
		c0,3.6,2.8,7.3,9.2,7.3C147,69.5,152.5,60.9,152.8,52.7z M420.4,25.4c0,14.9-10.5,25.4-25.6,25.4h-13.9v28.7h-13.3V0.3h27.2
		C409.8,0.3,420.4,10.7,420.4,25.4z M406.8,25.4c0-7.9-4.8-12.6-12.9-12.6h-13v25.5h12.9C402,38.4,406.8,33.5,406.8,25.4z
		 M481.9,50.1c0,17.2-13.4,30.7-30.6,30.7c-17.2,0-30.7-13.5-30.7-30.7c0-16.9,13.4-30.2,30.6-30.2
		C468.4,19.9,481.9,33.2,481.9,50.1z M468.6,50.1c0-9.9-7.6-17.7-17.3-17.7c-9.8,0-17.4,7.8-17.4,17.7c0,10.3,7.7,18.4,17.4,18.4
		C461,68.5,468.6,60.4,468.6,50.1z M591.6,56.4V33.1h13.1V21.1h-13.1V3.5l-13,7.5v10.1h-7v11.9h6.9v24c0,20.2,14.8,22.4,21.2,22.4
		c2.9,0,6-0.7,6-0.7V66.3c0,0-3.6,0.9-5.4,0.9C594.6,67.2,591.6,63.5,591.6,56.4z M204.1,20.7c-5.2,0-10.2,3.7-13.6,9.2v-8.7h-13
		v58.4h13.1V54.5c0-3.3,0.5-6.6,1.3-9.3c2.1-7,6.8-11.4,12.3-11.4c1.6,0,5.6,0.7,5.6,0.7V21.6C209.9,21.6,206.7,20.7,204.1,20.7z
		 M343.2,21.2v7.1c-3.1-8.1-14.6-8-14.6-8c-15.6,0-25.7,11.2-25.7,29.1c0,17.6,10.8,31.4,26.3,31.4c5.4,0,10-1.4,13.6-4.1v0.4
		c0,8.7-5.4,13.4-15.3,13.4c-6.7,0-12.6-3.2-12.7-3.2l-2.8-1.6l-5.2,11.5l2.5,1.3c5.7,2.9,12.2,4.5,18.5,4.5
		c13.6,0,28.2-6.9,28.2-26.1V21.2H343.2z M330,67.8c-8.5,0-14.1-6.9-14.1-17.6c0-10.9,4.7-16.9,13.1-16.9c9.4,0,13.6,5.2,13.6,17
		C342.7,61.9,338.4,67.8,330,67.8z M502.2,67.4h5v12.1h-8.7c-6.1,0-9.4-3.2-9.4-9.3l0-44.2l13.1-7.5L502.2,67.4z M566.5,43.2
		c0-15.7-6.7-23.3-20.6-23.3c-8.5,0-14.5,5.6-17.8,9.1v-7.9l-13,0l0,58.4h13.1V53c0-2.5,0.2-4.6,0.7-6.3c2-7.4,8.7-14.2,16.2-14.2
		c6.3,0,8.4,3,8.4,12.5v25.1c0,6.1,3.2,9.3,9.3,9.3h8.7V67.4h-5V43.2z M496,16c4.4,0,8-3.6,8-8c0-4.4-3.6-8-8-8c-4.4,0-8,3.6-8,8
		C488,12.4,491.6,16,496,16z M635.2,72c-0.2-1.7-0.8-2.6-1.8-2.8v-0.1c1.2-0.3,2.2-1.3,2.2-2.7c0-1.2-0.4-2-1-2.5
		c-0.8-0.6-2-0.9-3.9-0.9c-1.8,0-2.8,0.2-3.7,0.3v11.5h2.4v-4.7h1.1c1.2,0,2,0.5,2.2,1.8c0.2,1.6,0.4,2.6,0.7,3h2.5
		C635.7,74.5,635.4,73.8,635.2,72z M630.6,68.1h-1.3v-3.3c0.4,0,0.8,0,1.5,0c1.8,0,2.6,0.7,2.6,1.7
		C633.3,67.6,632.1,68.1,630.6,68.1z M631.1,57c-6.2,0-11.3,5.3-11.3,11.9c0,6.7,5,11.9,11.3,11.9h0.1c6.3,0,11.3-5.3,11.3-11.9
		C642.6,62.4,637.5,57,631.1,57z M631.3,78.4h-0.1c-5,0-8.9-4.2-8.9-9.5c0-5.2,4-9.5,8.9-9.5c5,0,9.1,4.3,9.1,9.5
		C640.2,74.1,636.2,78.4,631.3,78.4z">
  </path>
 </g>
</svg>