<svg width="40" height="24" viewBox="0 0 40 24" fill="none" xmlns="http://www.w3.org/2000/svg">
    <path fill-rule="evenodd" clip-rule="evenodd" d="M4.72018 0L3.89551 4.19234C4.82807 2.72507 5.9251 1.32479 7.17747 0H4.72018Z" fill="white"/>
    <path fill-rule="evenodd" clip-rule="evenodd" d="M5.88466 8.76688C4.91724 11.014 4.42578 13.2909 4.42578 15.5323C4.42578 17.2559 4.72054 18.8999 5.30191 20.4208C5.80443 21.7359 6.51485 22.9361 7.41726 23.9994H11.4392C10.875 23.624 10.3547 23.1882 9.88243 22.6958C7.60925 20.329 6.53062 17.1017 6.84766 13.6115C7.00424 11.8878 7.49154 10.1631 8.29602 8.48337C9.12664 6.74757 10.2744 5.11304 11.7063 3.62042C13.0712 2.19896 14.6169 1.04258 16.3 0.186272C16.4256 0.121876 16.5505 0.0602179 16.6768 0H12.789C11.9069 0.673345 11.0637 1.42549 10.2679 2.25514C8.36574 4.23614 6.8904 6.42689 5.88466 8.76688Z" fill="white"/>
    <path fill-rule="evenodd" clip-rule="evenodd" d="M11.0293 5.5775H12.996C13.0993 5.46513 13.2044 5.35132 13.3124 5.2391C15.3987 3.06751 17.9914 1.66463 20.6528 1.26112L20.901 0H18.7564C16.4523 0.756901 14.1859 2.16194 12.2468 4.1814C11.8128 4.63346 11.4075 5.09936 11.0293 5.5775Z" fill="white"/>
    <path fill-rule="evenodd" clip-rule="evenodd" d="M23.285 15.578C24.6514 14.1546 25.4037 12.518 25.4037 10.9671C25.4037 9.77379 24.9698 8.69275 24.1495 7.83716C23.7581 7.43033 23.2952 7.12276 22.7756 6.91992L22.5123 8.26114C22.7721 8.40909 23.0091 8.59147 23.2167 8.80785C23.936 9.55726 24.2833 10.5862 24.1974 11.707C24.112 12.8194 23.5983 13.9196 22.7501 14.8033C22.235 15.3396 21.6236 15.7656 20.9792 16.0547L20.7324 17.3091C21.6355 16.9583 22.5179 16.3774 23.285 15.578Z" fill="white"/>
    <path fill-rule="evenodd" clip-rule="evenodd" d="M26.1663 10.9676C26.1663 12.7294 25.335 14.5674 23.8242 16.1402C22.8749 17.1287 21.7425 17.8412 20.5546 18.2124L20.2646 19.6866C21.7943 19.2632 23.3037 18.3372 24.5826 17.004C27.9028 13.5467 28.4056 8.85489 25.7506 6.08876C25.059 5.36672 24.1978 4.86798 23.229 4.61328L22.9284 6.13947C23.5979 6.38063 24.197 6.76557 24.6879 7.2767C25.6555 8.28355 26.1663 9.55907 26.1663 10.9676Z" fill="white"/>
    <path fill-rule="evenodd" clip-rule="evenodd" d="M23.4368 11.6437C23.5048 10.7594 23.2351 9.95241 22.6772 9.37083C22.5761 9.26595 22.4666 9.17145 22.3498 9.08789L21.1729 15.0682C21.546 14.8449 21.8977 14.5674 22.2101 14.2414C22.9306 13.4911 23.3659 12.5686 23.4368 11.6437Z" fill="white"/>
    <path fill-rule="evenodd" clip-rule="evenodd" d="M1.32858 22.2354C1.0879 21.6091 0.886642 20.9694 0.724806 20.3145L0 23.9987H2.13112C1.82917 23.4307 1.56138 22.8423 1.32858 22.2354Z" fill="white"/>
    <path fill-rule="evenodd" clip-rule="evenodd" d="M3.66345 15.533C3.66345 13.1786 4.17732 10.7912 5.18887 8.44102C6.23333 6.01386 7.76123 3.74431 9.72914 1.69402C10.3093 1.08911 10.9132 0.524673 11.5378 0H8.26251C8.13083 0.132105 8.00067 0.265074 7.87051 0.40006C6.05241 2.29346 4.56462 4.35124 3.43398 6.53522L1.12207 18.2943C1.28515 19.5597 1.59029 20.7798 2.03693 21.9413C2.31053 22.6553 2.63628 23.3416 3.01113 23.9994H6.42214C5.6604 23.0019 5.04805 21.9019 4.59353 20.7139C3.97661 19.1013 3.66345 17.3573 3.66345 15.533Z" fill="white"/>
    <path fill-rule="evenodd" clip-rule="evenodd" d="M10.0879 14.3253C10.0879 14.4389 10.0905 14.552 10.0944 14.665H11.8209C11.7927 14.3924 11.7782 14.1157 11.7782 13.8347C11.7782 12.1989 12.2551 10.5261 13.1292 9.00391H11.4967C10.5759 10.7164 10.0879 12.5318 10.0879 14.3253Z" fill="white"/>
    <path fill-rule="evenodd" clip-rule="evenodd" d="M17.8146 9.00391H16.4077C15.2613 10.3123 14.6094 11.8974 14.6094 13.4025C14.6094 13.845 14.6633 14.2663 14.7686 14.665H16.1261C15.8947 14.1759 15.7716 13.6251 15.7716 13.0469C15.7716 11.7797 16.3308 10.4993 17.3462 9.44085C17.4963 9.28483 17.652 9.13889 17.8146 9.00391Z" fill="white"/>
    <path fill-rule="evenodd" clip-rule="evenodd" d="M12.541 13.8347C12.541 14.1177 12.5576 14.3944 12.5878 14.665H13.9847C13.8939 14.2594 13.8466 13.8362 13.8466 13.4025C13.8466 12.5052 14.0395 11.5989 14.4189 10.7096C14.6728 10.1116 15.0049 9.54241 15.4081 9.00391H14.0302C13.07 10.5096 12.541 12.1955 12.541 13.8347Z" fill="white"/>
    <path fill-rule="evenodd" clip-rule="evenodd" d="M25.1226 17.5656C23.6489 19.1006 21.8821 20.1364 20.0968 20.5454L19.7852 22.1325C22.0936 21.6593 24.3868 20.3768 26.1802 18.5088C28.2141 16.3914 29.5292 13.8212 29.8861 11.2714C29.9504 10.8097 29.9815 10.3556 29.982 9.91104C29.982 9.80616 29.9802 9.70057 29.9768 9.5967C29.905 7.52494 29.1255 5.67 27.6782 4.16211C26.5981 3.03742 25.2303 2.34894 23.7291 2.07422L23.3836 3.83278C24.4979 4.12033 25.4898 4.69168 26.2924 5.52608C29.2533 8.61146 28.7508 13.7876 25.1226 17.5656Z" fill="white"/>
    <path fill-rule="evenodd" clip-rule="evenodd" d="M28.2174 3.60054C29.2453 4.67178 29.9713 5.91187 30.3742 7.28737C30.3857 7.32699 30.3972 7.36689 30.4083 7.40651L30.7679 5.5775H31.7855C31.304 4.30471 30.5738 3.15395 29.6113 2.14955C28.6784 1.17828 27.5757 0.464455 26.3657 0H24.1376L23.8828 1.29468C24.2441 1.3611 24.5978 1.45013 24.9451 1.5612C26.2087 1.97005 27.3104 2.65578 28.2174 3.60054Z" fill="white"/>
    <path fill-rule="evenodd" clip-rule="evenodd" d="M32.5994 5.5775H35.1953C34.7023 3.48543 33.7275 1.58655 32.3118 0H28.1514C28.8838 0.435643 29.552 0.965935 30.1496 1.58785C31.2597 2.74568 32.083 4.08545 32.5994 5.5775Z" fill="white"/>
    <path fill-rule="evenodd" clip-rule="evenodd" d="M20.1616 3.75824L20.4886 2.09375C18.2588 2.4964 15.9804 3.67411 14.0703 5.57645H16.1515C17.3848 4.64826 18.758 4.02274 20.1616 3.75824Z" fill="white"/>
    <path fill-rule="evenodd" clip-rule="evenodd" d="M19.9971 4.60156C19.1646 4.79331 18.3445 5.12206 17.5664 5.57556H19.8065L19.9971 4.60156Z" fill="white"/>
    <path fill-rule="evenodd" clip-rule="evenodd" d="M7.60721 13.6859C7.31259 16.9358 8.31237 19.9369 10.4223 22.1352C11.1734 22.9167 12.0576 23.5421 13.0546 23.9992H16.1677L16.3645 23.0152C14.5714 22.7275 12.9928 21.9085 11.7392 20.6033C11.0946 19.9329 10.5696 19.156 10.1764 18.3051H8.36438L9.06346 14.6641H9.33181C9.32793 14.5512 9.32517 14.4388 9.32517 14.3244C9.32517 12.5303 9.77651 10.7204 10.6316 9.00377H10.1843L10.7933 5.88281C8.96622 8.29815 7.85066 11.0068 7.60721 13.6859Z" fill="white"/>
    <path fill-rule="evenodd" clip-rule="evenodd" d="M17.3047 18.3102L17.3067 18.3047H14.3438C15.1119 19.0446 16.0156 19.5446 17.0102 19.7842L17.3047 18.3102Z" fill="white"/>
    <path fill-rule="evenodd" clip-rule="evenodd" d="M16.8539 20.5626C15.6371 20.2749 14.5399 19.6404 13.6272 18.6903C13.5074 18.5656 13.3948 18.4377 13.2863 18.3047H11.0342C11.367 18.9417 11.784 19.5255 12.2787 20.0414C13.4231 21.2332 14.8715 21.9778 16.5197 22.2338L16.8539 20.5626Z" fill="white"/>
    <path fill-rule="evenodd" clip-rule="evenodd" d="M27.1418 23.9993L27.6641 21.3496C26.536 22.4128 25.2656 23.3052 23.918 23.9993H27.1418Z" fill="white"/>
    <path fill-rule="evenodd" clip-rule="evenodd" d="M32.4566 9.91016H30.7431C30.7431 10.3943 30.7103 10.8869 30.6403 11.3856C30.4424 12.8009 29.9691 14.2196 29.2578 15.5712H30.9682C31.7127 14.0387 32.1947 12.4454 32.3807 10.8589C32.4185 10.5403 32.4427 10.2245 32.4566 9.91016Z" fill="white"/>
    <path fill-rule="evenodd" clip-rule="evenodd" d="M36.9266 0H33.3291C34.6296 1.62214 35.5247 3.51554 35.9811 5.5775H38.7629C38.5922 4.339 38.2883 3.14285 37.8568 2.00577C37.5923 1.30909 37.2819 0.640499 36.9266 0Z" fill="white"/>
    <path fill-rule="evenodd" clip-rule="evenodd" d="M37.8018 0C38.087 0.552045 38.3422 1.12339 38.5658 1.71333C38.8368 2.42629 39.0594 3.15928 39.2313 3.91142L39.9998 0H37.8018Z" fill="white"/>
    <path fill-rule="evenodd" clip-rule="evenodd" d="M35.5362 9.91016H33.2197C33.2065 10.2566 33.1794 10.6041 33.1386 10.9547C32.9556 12.5083 32.5059 14.0668 31.8164 15.5712H34.1699C34.8683 13.8997 35.3166 12.1768 35.4904 10.4567C35.51 10.2739 35.5248 10.093 35.5362 9.91016Z" fill="white"/>
    <path fill-rule="evenodd" clip-rule="evenodd" d="M36.2493 10.5396C36.0782 12.2317 35.6533 13.9252 34.998 15.5719H36.7571L37.8526 9.91016H36.3006C36.2876 10.1198 36.2702 10.33 36.2493 10.5396Z" fill="white"/>
    <path fill-rule="evenodd" clip-rule="evenodd" d="M19.6188 22.9713L19.417 24.0004H21.9801C24.0858 23.209 26.0732 21.9136 27.6967 20.2216C27.7783 20.1381 27.8577 20.0516 27.9366 19.9668L28.5726 16.7402C28.0412 17.5584 27.4217 18.3413 26.7198 19.0722C24.7407 21.1341 22.1814 22.5207 19.6188 22.9713Z" fill="white"/>
    <path fill-rule="evenodd" clip-rule="evenodd" d="M17.8864 10.0021C17.0143 10.9104 16.5342 11.9907 16.5342 13.0462C16.5342 13.6561 16.6985 14.2074 17.0117 14.6636H17.8286L18.8862 9.19922C18.5311 9.41301 18.1922 9.68283 17.8864 10.0021Z" fill="white"/>
</svg>
