<svg width="266" height="47" viewBox="0 0 266 47" fill="none" xmlns="http://www.w3.org/2000/svg">
<g clip-path="url(#clip0_54956_204196)">
<path d="M122.231 27.1284V36.0812C122.231 36.4538 121.931 36.7538 121.558 36.7538H116.993C116.62 36.7538 116.32 36.4538 116.32 36.0812V11.1295C116.32 10.7568 116.62 10.4568 116.993 10.4568H132.914C133.287 10.4568 133.587 10.7568 133.587 11.1295V14.3573C133.587 14.7299 133.287 15.03 132.914 15.03H122.231V22.5552H131.22C131.592 22.5552 131.893 22.8552 131.893 23.2278V26.4557C131.893 26.8283 131.592 27.1284 131.22 27.1284H122.231Z" fill="#46070E"/>
<path d="M153.15 36.7557C152.778 36.7557 152.478 36.4556 152.478 36.083V31.0355C152.478 28.824 151.374 27.5657 148.876 27.5657H144.626V36.083C144.626 36.4556 144.326 36.7557 143.953 36.7557H139.505C139.132 36.7557 138.832 36.4556 138.832 36.083V11.1313C138.832 10.7587 139.132 10.4586 139.505 10.4586H150.227C156.132 10.4586 159.012 13.2219 159.012 18.25C159.012 22.6151 156.06 25.0541 153.809 25.2622C156.113 25.4122 158.383 26.6704 158.383 30.3484V36.083C158.383 36.4556 158.083 36.7557 157.71 36.7557H153.146H153.15ZM144.626 15.0124V22.9974H148.954C151.238 22.9974 152.937 21.3568 152.937 18.7871C152.937 16.4062 151.432 15.0124 148.842 15.0124H144.631H144.626Z" fill="#46070E"/>
<path d="M174.439 15.2461H174.957L180.161 36.2344C180.233 36.5393 180.505 36.7571 180.814 36.7571H185.481C185.916 36.7571 186.241 36.3457 186.134 35.9247L179.493 10.9343C179.42 10.6342 179.149 10.4261 178.839 10.4261H170.533C170.223 10.4261 169.957 10.6342 169.879 10.9343L163.199 35.9247C163.093 36.3506 163.412 36.7619 163.853 36.7619H168.519C168.834 36.7619 169.105 36.5441 169.173 36.2393L174.434 15.251L174.439 15.2461Z" fill="#46070E"/>
<path d="M99.7576 15.2461H100.276L105.484 36.2344C105.552 36.5393 105.828 36.7571 106.138 36.7571H110.804C111.24 36.7571 111.564 36.3457 111.457 35.9247L104.816 10.9343C104.743 10.6342 104.472 10.4261 104.163 10.4261H95.856C95.5462 10.4261 95.28 10.6342 95.2025 10.9343L88.5225 35.9247C88.416 36.3506 88.7355 36.7619 89.1759 36.7619H93.8423C94.157 36.7619 94.428 36.5441 94.4958 36.2393L99.7576 15.251V15.2461Z" fill="#46070E"/>
<path d="M216.621 10.4568H212.212C211.839 10.4568 211.539 10.7568 211.539 11.1295V31.2757H211.316L200.115 10.902C200.018 10.6358 199.766 10.4568 199.481 10.4568H191.441C191.068 10.4568 190.768 10.7568 190.768 11.1295V36.0812C190.768 36.4538 191.068 36.7538 191.441 36.7538H195.87C196.242 36.7538 196.543 36.4538 196.543 36.0812V16.1914H196.765L207.894 36.3086C207.991 36.5748 208.242 36.7538 208.528 36.7538H216.626C216.999 36.7538 217.299 36.4538 217.299 36.0812V11.1295C217.299 10.7568 216.999 10.4568 216.626 10.4568" fill="#46070E"/>
<path d="M59.98 11.4688V15.8774C59.98 16.2501 60.2802 16.5501 60.6529 16.5501H79.449V16.7727L60.4254 27.066C60.1591 27.1628 59.98 27.4144 59.98 27.7V35.7381C59.98 36.1108 60.2802 36.4108 60.6529 36.4108H84.2558C84.6285 36.4108 84.9286 36.1108 84.9286 35.7381V31.3101C84.9286 30.9375 84.6285 30.6374 84.2558 30.6374H65.7162V30.4148L84.4833 20.1941C84.7495 20.0973 84.9286 19.8457 84.9286 19.5602V11.4639C84.9286 11.0913 84.6285 10.7913 84.2558 10.7913H60.6529C60.2802 10.7913 59.98 11.0913 59.98 11.4639" fill="#46070E"/>
<path d="M45.039 28.3283V2.47646C45.039 1.11176 43.9305 0.0035473 42.5703 0.0035473H3.02239C1.0571 -0.00129205 0.127696 2.41355 1.57988 3.72985L34.4139 30.0172C35.048 30.5253 35.8322 30.8012 36.6406 30.8012H42.5655C43.9305 30.8012 45.0342 29.693 45.0342 28.3331L45.039 28.3283Z" fill="#46070E"/>
<path d="M0 17.7448V43.6014C0 44.9661 1.10366 46.0695 2.46872 46.0695H42.0167C43.9771 46.0743 44.9113 43.6595 43.4543 42.3432L10.6203 16.0558C9.98622 15.5477 9.20203 15.2719 8.39365 15.2719H2.46872C1.10366 15.2719 0 16.3801 0 17.7399V17.7448Z" fill="#46070E"/>
</g>
<defs>
<clipPath id="clip0_54956_204196">
<rect width="217.286" height="46.0803" fill="white"/>
</clipPath>
</defs>
</svg>
